<svg width="34" height="22" viewBox="0 0 34 22" fill="none" xmlns="http://www.w3.org/2000/svg">
<path d="M8.33665 21.3878C6.69934 21.3878 5.29403 20.9735 4.12074 20.1449C2.95407 19.3097 2.05587 18.1065 1.42614 16.5355C0.80303 14.9579 0.491477 13.0587 0.491477 10.8381C0.498106 8.61742 0.812974 6.72822 1.43608 5.17045C2.06581 3.60606 2.96402 2.41288 4.13068 1.59091C5.30398 0.768939 6.70597 0.357954 8.33665 0.357954C9.96733 0.357954 11.3693 0.768939 12.5426 1.59091C13.7159 2.41288 14.6141 3.60606 15.2372 5.17045C15.867 6.73485 16.1818 8.62405 16.1818 10.8381C16.1818 13.0653 15.867 14.9678 15.2372 16.5455C14.6141 18.1165 13.7159 19.3163 12.5426 20.1449C11.3759 20.9735 9.97396 21.3878 8.33665 21.3878ZM8.33665 18.2756C9.60938 18.2756 10.6136 17.6491 11.3494 16.3963C12.0919 15.1368 12.4631 13.2841 12.4631 10.8381C12.4631 9.22064 12.294 7.86174 11.956 6.76136C11.6179 5.66098 11.1406 4.83239 10.5241 4.27557C9.90767 3.71212 9.1785 3.4304 8.33665 3.4304C7.07055 3.4304 6.0696 4.06013 5.33381 5.3196C4.59801 6.57244 4.2268 8.41193 4.22017 10.8381C4.21354 12.4621 4.37595 13.8277 4.70739 14.9347C5.04545 16.0417 5.52273 16.8769 6.1392 17.4403C6.75568 17.9972 7.48816 18.2756 8.33665 18.2756ZM19.4854 21V18.3352L26.555 11.4048C27.2312 10.7221 27.7946 10.1155 28.2454 9.58523C28.6961 9.05492 29.0342 8.54119 29.2596 8.04403C29.485 7.54687 29.5977 7.01657 29.5977 6.45312C29.5977 5.81013 29.4518 5.25994 29.1602 4.80256C28.8685 4.33854 28.4674 3.98059 27.957 3.72869C27.4466 3.4768 26.8666 3.35085 26.217 3.35085C25.5475 3.35085 24.9608 3.49006 24.457 3.76847C23.9532 4.04025 23.5621 4.42803 23.2837 4.93182C23.012 5.43561 22.8761 6.03551 22.8761 6.73153H19.3661C19.3661 5.43892 19.6611 4.31534 20.2511 3.36079C20.841 2.40625 21.6531 1.66714 22.6871 1.14347C23.7279 0.619791 24.921 0.357954 26.2667 0.357954C27.6322 0.357954 28.832 0.613162 29.8661 1.12358C30.9002 1.634 31.7023 2.33333 32.2724 3.22159C32.8491 4.10985 33.1374 5.12405 33.1374 6.2642C33.1374 7.02651 32.9916 7.77557 32.6999 8.51136C32.4083 9.24716 31.8945 10.0625 31.1587 10.9574C30.4296 11.8523 29.4054 12.9361 28.0863 14.2088L24.5763 17.7784V17.9176H33.4457V21H19.4854Z" fill="#FCACCA"/>
</svg>
