<svg width="35" height="22" viewBox="0 0 35 22" fill="none" xmlns="http://www.w3.org/2000/svg">
<path d="M8.33665 21.3878C6.69934 21.3878 5.29403 20.9735 4.12074 20.1449C2.95407 19.3097 2.05587 18.1065 1.42614 16.5355C0.80303 14.9579 0.491477 13.0587 0.491477 10.8381C0.498106 8.61742 0.812974 6.72822 1.43608 5.17045C2.06581 3.60606 2.96402 2.41288 4.13068 1.59091C5.30398 0.768939 6.70597 0.357954 8.33665 0.357954C9.96733 0.357954 11.3693 0.768939 12.5426 1.59091C13.7159 2.41288 14.6141 3.60606 15.2372 5.17045C15.867 6.73485 16.1818 8.62405 16.1818 10.8381C16.1818 13.0653 15.867 14.9678 15.2372 16.5455C14.6141 18.1165 13.7159 19.3163 12.5426 20.1449C11.3759 20.9735 9.97396 21.3878 8.33665 21.3878ZM8.33665 18.2756C9.60938 18.2756 10.6136 17.6491 11.3494 16.3963C12.0919 15.1368 12.4631 13.2841 12.4631 10.8381C12.4631 9.22064 12.294 7.86174 11.956 6.76136C11.6179 5.66098 11.1406 4.83239 10.5241 4.27557C9.90767 3.71212 9.1785 3.4304 8.33665 3.4304C7.07055 3.4304 6.0696 4.06013 5.33381 5.3196C4.59801 6.57244 4.2268 8.41193 4.22017 10.8381C4.21354 12.4621 4.37595 13.8277 4.70739 14.9347C5.04545 16.0417 5.52273 16.8769 6.1392 17.4403C6.75568 17.9972 7.48816 18.2756 8.33665 18.2756ZM26.7937 21.2784C25.3619 21.2784 24.0891 21.0331 22.9755 20.5426C21.8685 20.0521 20.9935 19.3693 20.3505 18.4943C19.7075 17.6193 19.3661 16.6084 19.3263 15.4616H23.065C23.0981 16.0118 23.2804 16.4924 23.6119 16.9034C23.9433 17.3078 24.3841 17.6226 24.9343 17.848C25.4845 18.0734 26.101 18.1861 26.7837 18.1861C27.5129 18.1861 28.1592 18.0601 28.7227 17.8082C29.2861 17.5497 29.7269 17.1918 30.0451 16.7344C30.3633 16.277 30.5191 15.75 30.5124 15.1534C30.5191 14.5369 30.36 13.9934 30.0352 13.5227C29.7103 13.0521 29.2397 12.6842 28.6232 12.419C28.0134 12.1539 27.2776 12.0213 26.4158 12.0213H24.6161V9.17756H26.4158C27.1251 9.17756 27.7449 9.05492 28.2752 8.80966C28.8121 8.56439 29.2331 8.2197 29.538 7.77557C29.8429 7.32481 29.9921 6.80445 29.9854 6.21449C29.9921 5.63778 29.8628 5.13731 29.5977 4.71307C29.3391 4.2822 28.9712 3.94744 28.494 3.70881C28.0233 3.47017 27.4698 3.35085 26.8335 3.35085C26.2103 3.35085 25.6336 3.46354 25.1033 3.68892C24.573 3.9143 24.1455 4.2358 23.8207 4.65341C23.4959 5.06439 23.3235 5.55492 23.3036 6.125H19.7539C19.7804 4.98485 20.1085 3.9839 20.7383 3.12216C21.3746 2.25379 22.2231 1.57765 23.2837 1.09375C24.3443 0.603219 25.5342 0.357954 26.8533 0.357954C28.2122 0.357954 29.3922 0.613162 30.3931 1.12358C31.4007 1.62737 32.1796 2.30682 32.7298 3.16193C33.2799 4.01704 33.555 4.96165 33.555 5.99574C33.5617 7.14252 33.2236 8.10369 32.5408 8.87926C31.8647 9.65483 30.9764 10.1619 29.8761 10.4006V10.5597C31.3079 10.7585 32.4049 11.2888 33.1673 12.1506C33.9362 13.0057 34.3174 14.0696 34.3107 15.3423C34.3107 16.4825 33.9859 17.5033 33.3363 18.4048C32.6933 19.2997 31.805 20.0024 30.6715 20.5128C29.5446 21.0232 28.252 21.2784 26.7937 21.2784Z" fill="#FF89B5"/>
</svg>
