<svg width="35" height="22" viewBox="0 0 35 22" fill="none" xmlns="http://www.w3.org/2000/svg">
<path d="M8.33665 21.3878C6.69934 21.3878 5.29403 20.9735 4.12074 20.1449C2.95407 19.3097 2.05587 18.1065 1.42614 16.5355C0.80303 14.9579 0.491477 13.0587 0.491477 10.8381C0.498106 8.61742 0.812974 6.72822 1.43608 5.17045C2.06581 3.60606 2.96402 2.41288 4.13068 1.59091C5.30398 0.768939 6.70597 0.357954 8.33665 0.357954C9.96733 0.357954 11.3693 0.768939 12.5426 1.59091C13.7159 2.41288 14.6141 3.60606 15.2372 5.17045C15.867 6.73485 16.1818 8.62405 16.1818 10.8381C16.1818 13.0653 15.867 14.9678 15.2372 16.5455C14.6141 18.1165 13.7159 19.3163 12.5426 20.1449C11.3759 20.9735 9.97396 21.3878 8.33665 21.3878ZM8.33665 18.2756C9.60938 18.2756 10.6136 17.6491 11.3494 16.3963C12.0919 15.1368 12.4631 13.2841 12.4631 10.8381C12.4631 9.22064 12.294 7.86174 11.956 6.76136C11.6179 5.66098 11.1406 4.83239 10.5241 4.27557C9.90767 3.71212 9.1785 3.4304 8.33665 3.4304C7.07055 3.4304 6.0696 4.06013 5.33381 5.3196C4.59801 6.57244 4.2268 8.41193 4.22017 10.8381C4.21354 12.4621 4.37595 13.8277 4.70739 14.9347C5.04545 16.0417 5.52273 16.8769 6.1392 17.4403C6.75568 17.9972 7.48816 18.2756 8.33665 18.2756ZM19.1175 17.2216V14.2884L27.7582 0.636363H30.2042V4.8125H28.7127L22.896 14.0298V14.1889H34.957V17.2216H19.1175ZM28.832 21V16.3267L28.8718 15.0142V0.636363H32.3519V21H28.832Z" fill="#FF5C99"/>
</svg>
