<svg width="34" height="22" viewBox="0 0 34 22" fill="none" xmlns="http://www.w3.org/2000/svg">
<path d="M8.33665 21.3878C6.69934 21.3878 5.29403 20.9735 4.12074 20.1449C2.95407 19.3097 2.05587 18.1065 1.42614 16.5355C0.80303 14.9579 0.491477 13.0587 0.491477 10.8381C0.498106 8.61742 0.812974 6.72822 1.43608 5.17045C2.06581 3.60606 2.96402 2.41288 4.13068 1.59091C5.30398 0.768939 6.70597 0.357954 8.33665 0.357954C9.96733 0.357954 11.3693 0.768939 12.5426 1.59091C13.7159 2.41288 14.6141 3.60606 15.2372 5.17045C15.867 6.73485 16.1818 8.62405 16.1818 10.8381C16.1818 13.0653 15.867 14.9678 15.2372 16.5455C14.6141 18.1165 13.7159 19.3163 12.5426 20.1449C11.3759 20.9735 9.97396 21.3878 8.33665 21.3878ZM8.33665 18.2756C9.60938 18.2756 10.6136 17.6491 11.3494 16.3963C12.0919 15.1368 12.4631 13.2841 12.4631 10.8381C12.4631 9.22064 12.294 7.86174 11.956 6.76136C11.6179 5.66098 11.1406 4.83239 10.5241 4.27557C9.90767 3.71212 9.1785 3.4304 8.33665 3.4304C7.07055 3.4304 6.0696 4.06013 5.33381 5.3196C4.59801 6.57244 4.2268 8.41193 4.22017 10.8381C4.21354 12.4621 4.37595 13.8277 4.70739 14.9347C5.04545 16.0417 5.52273 16.8769 6.1392 17.4403C6.75568 17.9972 7.48816 18.2756 8.33665 18.2756ZM26.565 21.2784C25.2392 21.2784 24.0527 21.0298 23.0053 20.5327C21.958 20.0289 21.1261 19.3395 20.5096 18.4645C19.8997 17.5895 19.5749 16.5885 19.5352 15.4616H23.1147C23.181 16.2969 23.5423 16.9796 24.1985 17.5099C24.8548 18.0336 25.6436 18.2955 26.565 18.2955C27.2875 18.2955 27.9305 18.1297 28.494 17.7983C29.0574 17.4669 29.5015 17.0062 29.8263 16.4162C30.1512 15.8262 30.3103 15.1534 30.3036 14.3977C30.3103 13.6288 30.1478 12.946 29.8164 12.3494C29.485 11.7528 29.0309 11.2855 28.4542 10.9474C27.8775 10.6027 27.2146 10.4304 26.4656 10.4304C25.8557 10.4238 25.2558 10.5365 24.6658 10.7685C24.0759 11.0005 23.6085 11.3054 23.2638 11.6832L19.9329 11.1364L20.9968 0.636363H32.8093V3.71875H24.0494L23.4627 9.1179H23.582C23.9599 8.67377 24.4935 8.30587 25.1829 8.0142C25.8723 7.71591 26.628 7.56676 27.4499 7.56676C28.6829 7.56676 29.7833 7.85843 30.7511 8.44176C31.7189 9.01847 32.4812 9.81392 33.038 10.8281C33.5948 11.8423 33.8732 13.0024 33.8732 14.3082C33.8732 15.6539 33.5617 16.8537 32.9386 17.9077C32.3221 18.955 31.4637 19.7803 30.3633 20.3835C29.2695 20.9801 28.0034 21.2784 26.565 21.2784Z" fill="#E42D71"/>
</svg>
