<svg width="23" height="32" viewBox="0 0 23 32" fill="none" xmlns="http://www.w3.org/2000/svg">
<path d="M12.625 4.25C12.625 5.07843 12.1213 5.75 11.5 5.75C10.8787 5.75 10.375 5.07843 10.375 4.25V2C10.375 1.17157 10.8787 0.5 11.5 0.5C12.1213 0.5 12.625 1.17157 12.625 2V4.25Z" fill="#AD0D49"/>
<path fill-rule="evenodd" clip-rule="evenodd" d="M21.625 15.5H17.4288C16.8074 15.5 16.3038 16.1716 16.3038 17C16.3038 17.8284 16.8074 18.5 17.4288 18.5H20.4325C19.9149 23.9351 16.7021 28.2127 12.625 28.895V15.5C12.6355 15.4105 12.6355 15.3195 12.625 15.23C14.0278 14.5332 14.8552 12.5972 14.5897 10.6329C14.3242 8.66858 13.042 7.23951 11.545 7.23951C10.048 7.23951 8.7658 8.66858 8.5003 10.6329C8.2348 12.5972 9.0622 14.5332 10.465 15.23C10.4598 15.3199 10.4598 15.4101 10.465 15.5V28.895C6.3529 28.2637 3.09396 23.9742 2.5675 18.5H5.05375C5.67507 18.5 6.17875 17.8284 6.17875 17C6.17875 16.1716 5.67507 15.5 5.05375 15.5H1.375C0.75368 15.5 0.25 16.1716 0.25 17C0.25 25.2843 5.2868 32 11.5 32C17.7132 32 22.75 25.2843 22.75 17C22.75 16.1716 22.2463 15.5 21.625 15.5ZM11.5 12.5C11.034 12.5 10.6562 11.9963 10.6562 11.375C10.6562 10.7537 11.034 10.25 11.5 10.25C11.966 10.25 12.3438 10.7537 12.3438 11.375C12.3377 11.9929 11.9635 12.4919 11.5 12.5Z" fill="#AD0D49"/>
</svg>
