<svg width="27" height="27" viewBox="0 0 27 27" fill="none" xmlns="http://www.w3.org/2000/svg">
<path d="M14.625 3.9375C14.625 4.55882 14.1213 5.0625 13.5 5.0625C12.8787 5.0625 12.375 4.55882 12.375 3.9375V2.25C12.375 1.62868 12.8787 1.125 13.5 1.125C14.1213 1.125 14.625 1.62868 14.625 2.25V3.9375Z" fill="#1E32A6"/>
<path fill-rule="evenodd" clip-rule="evenodd" d="M23.625 12.375H19.4288C18.8074 12.375 18.3038 12.8787 18.3038 13.5C18.3038 14.1213 18.8074 14.625 19.4288 14.625H22.4325C21.9149 18.7014 18.7021 21.9095 14.625 22.4212V12.375C14.6355 12.3079 14.6355 12.2396 14.625 12.1725C16.0278 11.6499 16.8552 10.1979 16.5897 8.72468C16.3242 7.25144 15.042 6.17963 13.545 6.17963C12.048 6.17963 10.7658 7.25144 10.5003 8.72468C10.2348 10.1979 11.0622 11.6499 12.465 12.1725C12.4598 12.2399 12.4598 12.3076 12.465 12.375V22.4212C8.3529 21.9478 5.09396 18.7306 4.5675 14.625H7.05375C7.67507 14.625 8.17875 14.1213 8.17875 13.5C8.17875 12.8787 7.67507 12.375 7.05375 12.375H3.375C2.75368 12.375 2.25 12.8787 2.25 13.5C2.25 19.7132 7.2868 24.75 13.5 24.75C19.7132 24.75 24.75 19.7132 24.75 13.5C24.75 12.8787 24.2463 12.375 23.625 12.375ZM13.5 10.125C13.034 10.125 12.6562 9.74724 12.6562 9.28125C12.6562 8.81526 13.034 8.4375 13.5 8.4375C13.966 8.4375 14.3438 8.81526 14.3438 9.28125C14.3377 9.74471 13.9635 10.1189 13.5 10.125Z" fill="#1E32A6"/>
</svg>
