<svg width="37" height="37" viewBox="0 0 37 37" fill="none" xmlns="http://www.w3.org/2000/svg">
<path d="M26.6694 26.7015C26.0308 26.7015 25.5132 26.1838 25.5132 25.5453V11.4699H11.4532C10.8146 11.4699 10.2969 10.9522 10.2969 10.3136C10.2969 9.67503 10.8146 9.15736 11.4532 9.15736H26.6848C26.9895 9.15182 27.2837 9.2684 27.5019 9.48111C27.7226 9.7015 27.845 10.0017 27.8411 10.3136V25.5453C27.8454 25.8559 27.7228 26.1549 27.5017 26.3731C27.2806 26.5913 26.98 26.7099 26.6694 26.7015Z" fill="#040612"/>
<path d="M10.3123 27.8424C10.0077 27.8479 9.71345 27.7313 9.49526 27.5186C9.27398 27.3012 9.14934 27.004 9.14934 26.6938C9.14934 26.3836 9.27398 26.0864 9.49526 25.869L25.8678 9.49652C26.156 9.18718 26.5901 9.05985 26.9998 9.16447C27.4095 9.26909 27.7294 9.58899 27.834 9.99866C27.9386 10.4083 27.8113 10.8424 27.5019 11.1307L11.1294 27.5186C10.9085 27.7271 10.6161 27.8429 10.3123 27.8424Z" fill="#040612"/>
<path d="M26.6694 27.8578C25.3923 27.8578 24.3569 26.8224 24.3569 25.5453V12.6261H11.4532C10.176 12.6261 9.14067 11.5908 9.14067 10.3136C9.14067 9.03645 10.176 8.00111 11.4532 8.00111H26.7003C27.3174 7.98838 27.913 8.22793 28.3495 8.66439C28.7859 9.10086 29.0255 9.69648 29.0128 10.3136V25.5453C29.0128 26.164 28.7649 26.7569 28.3246 27.1915C27.8842 27.626 27.2881 27.866 26.6694 27.8578Z" fill="#040612"/>
<path d="M10.3123 28.9986C9.70079 29.0056 9.11204 28.7667 8.67817 28.3357C8.24039 27.9015 7.99414 27.3104 7.99414 26.6938C7.99414 26.0772 8.24039 25.4861 8.67817 25.0519L25.0507 8.67944C25.6272 8.06076 26.4954 7.80609 27.3147 8.01533C28.1341 8.22458 28.7739 8.86437 28.9831 9.68371C29.1924 10.5031 28.9377 11.3713 28.319 11.9478L11.9465 28.3357C11.5089 28.761 10.9226 28.9989 10.3123 28.9986Z" fill="#040612"/>
</svg>
