<svg width="19" height="19" viewBox="0 0 19 19" fill="none" xmlns="http://www.w3.org/2000/svg">
<path d="M0.595921 18.6401C0.814115 18.8528 1.10834 18.9694 1.413 18.9639C1.71676 18.9645 2.00918 18.8486 2.23009 18.6401L16.6138 4.24283V16.6668C16.6138 17.3054 17.1315 17.823 17.7701 17.823C18.0807 17.8315 18.3812 17.7129 18.6024 17.4946C18.8235 17.2764 18.9461 16.9774 18.9418 16.6668V1.66294C18.9818 1.48705 18.9809 1.30122 18.9346 1.12018C18.83 0.710505 18.5101 0.39061 18.1005 0.285987C17.9194 0.239751 17.7336 0.238817 17.5577 0.278873H2.55384C1.91526 0.278873 1.39759 0.796544 1.39759 1.43512C1.39759 2.0737 1.91526 2.59137 2.55384 2.59137H14.9951L0.595921 16.9905C0.374644 17.2079 0.25 17.5051 0.25 17.8153C0.25 18.1255 0.374644 18.4227 0.595921 18.6401Z" fill="#1E32A6"/>
</svg>
