<svg width="32" height="32" viewBox="0 0 32 32" fill="none" xmlns="http://www.w3.org/2000/svg">
<path d="M25.0662 9.89339C25.0588 8.79403 24.1655 7.9067 23.0662 7.90672C21.9616 7.90672 21.0662 8.80215 21.0662 9.90672V18.2534L10.3328 7.49339C9.54858 6.71282 8.28005 6.71581 7.49949 7.50005C6.71893 8.2843 6.72191 9.55282 7.50616 10.3334L18.2528 21.0801H9.90616C8.80159 21.0801 7.90616 21.9755 7.90616 23.0801C7.90616 24.1846 8.80159 25.0801 9.90616 25.0801H23.0928C23.6243 25.0836 24.1351 24.8741 24.511 24.4982C24.8868 24.1224 25.0964 23.6116 25.0928 23.0801L25.0662 9.89339Z" fill="#74DFFF"/>
</svg>
