<svg width="38" height="37" viewBox="0 0 38 37" fill="none" xmlns="http://www.w3.org/2000/svg">
<path d="M27.1694 26.7015C26.5308 26.7015 26.0132 26.1838 26.0132 25.5453V11.4699H11.9532C11.3146 11.4699 10.7969 10.9522 10.7969 10.3136C10.7969 9.67503 11.3146 9.15736 11.9532 9.15736H27.1848C27.4895 9.15182 27.7837 9.2684 28.0019 9.48111C28.2226 9.7015 28.345 10.0017 28.3411 10.3136V25.5453C28.3454 25.8559 28.2228 26.1549 28.0017 26.3731C27.7806 26.5913 27.48 26.7099 27.1694 26.7015Z" fill="#1E32A6"/>
<path d="M10.8123 27.8424C10.5077 27.8479 10.2135 27.7313 9.99526 27.5186C9.77398 27.3012 9.64934 27.004 9.64934 26.6938C9.64934 26.3836 9.77398 26.0864 9.99526 25.869L26.3678 9.49652C26.656 9.18718 27.0901 9.05985 27.4998 9.16447C27.9095 9.26909 28.2294 9.58899 28.334 9.99866C28.4386 10.4083 28.3113 10.8424 28.0019 11.1307L11.6294 27.5186C11.4085 27.7271 11.1161 27.8429 10.8123 27.8424Z" fill="#1E32A6"/>
<path d="M27.1694 27.8578C25.8923 27.8578 24.8569 26.8224 24.8569 25.5453V12.6261H11.9532C10.676 12.6261 9.64067 11.5908 9.64067 10.3136C9.64067 9.03645 10.676 8.00111 11.9532 8.00111H27.2003C27.8174 7.98838 28.413 8.22793 28.8495 8.66439C29.2859 9.10086 29.5255 9.69648 29.5128 10.3136V25.5453C29.5128 26.164 29.2649 26.7569 28.8246 27.1915C28.3842 27.626 27.7881 27.866 27.1694 27.8578Z" fill="#1E32A6"/>
<path d="M10.8123 28.9986C10.2008 29.0056 9.61204 28.7667 9.17817 28.3357C8.74039 27.9015 8.49414 27.3104 8.49414 26.6938C8.49414 26.0772 8.74039 25.4861 9.17817 25.0519L25.5507 8.67944C26.1272 8.06076 26.9954 7.80609 27.8147 8.01533C28.6341 8.22458 29.2739 8.86437 29.4831 9.68371C29.6924 10.5031 29.4377 11.3713 28.819 11.9478L12.4465 28.3357C12.0089 28.761 11.4226 28.9989 10.8123 28.9986Z" fill="#1E32A6"/>
</svg>
