<svg width="24" height="24" viewBox="0 0 24 24" fill="none" xmlns="http://www.w3.org/2000/svg">
<path d="M11.4791 20.4798C11.0833 20.48 10.703 20.3257 10.4191 20.0498L3.41915 13.0498C2.83424 12.4642 2.83424 11.5155 3.41915 10.9298L10.4191 3.92983C10.7996 3.55113 11.3533 3.40418 11.8715 3.54434C12.3897 3.6845 12.7937 4.09048 12.9315 4.60934C13.0692 5.1282 12.9196 5.68113 12.5391 6.05983L8.1067 10.4998H19.519C20.3475 10.4998 21.019 11.1713 21.019 11.9998C21.019 12.8282 20.3475 13.4998 19.519 13.4998H8.11161L12.5391 17.9198C12.9676 18.3488 13.0957 18.9935 12.8637 19.5537C12.6318 20.1138 12.0854 20.4793 11.4791 20.4798Z" fill="#1E32A6"/>
</svg>
