<svg width="29" height="20" viewBox="0 0 29 20" fill="none" xmlns="http://www.w3.org/2000/svg">
<path d="M3.79763 8.13918H10.9976C11.619 8.13918 12.1226 7.6355 12.1226 7.01418C12.1226 6.39286 11.619 5.88918 10.9976 5.88918H1.08263C0.932962 5.88872 0.78483 5.91937 0.647632 5.97918C0.371222 6.09754 0.15099 6.31777 0.0326324 6.59418C0.00995587 6.73326 0.00995587 6.8751 0.0326324 7.01418V16.9592C0.0326324 17.5805 0.536312 18.0842 1.15763 18.0842C1.77895 18.0842 2.28263 17.5805 2.28263 16.9592V9.72918L11.7926 19.2392C12.0015 19.4531 12.2887 19.5723 12.5876 19.5692C12.8862 19.5706 13.1728 19.4516 13.3826 19.2392C13.8213 18.8 13.8213 18.0884 13.3826 17.6492L3.79763 8.13918Z" fill="#AD0D49"/>
<path d="M28.0376 3.02418C28.0376 2.40286 27.534 1.89918 26.9126 1.89918C26.2913 1.89918 25.7876 2.40286 25.7876 3.02418V10.2692L16.2776 0.759183C16.0687 0.544761 15.782 0.423828 15.4826 0.423828C15.1833 0.423828 14.8966 0.544761 14.6876 0.759183C14.249 1.19841 14.249 1.90996 14.6876 2.34918L24.1976 11.8592H16.9976C16.3763 11.8592 15.8726 12.3629 15.8726 12.9842C15.8726 13.6055 16.3763 14.1092 16.9976 14.1092H26.9426C27.0923 14.1096 27.2404 14.079 27.3776 14.0192C27.654 13.9008 27.8743 13.6806 27.9926 13.4042C28.0405 13.2692 28.0658 13.1273 28.0676 12.9842L28.0376 3.02418Z" fill="#AD0D49"/>
</svg>
