<svg width="27" height="27" viewBox="0 0 27 27" fill="none" xmlns="http://www.w3.org/2000/svg">
<path fill-rule="evenodd" clip-rule="evenodd" d="M22.8825 10.35H23.31C23.9708 10.3246 24.5283 10.8369 24.5588 11.4975V16.65C24.5165 17.3016 23.9625 17.8008 23.31 17.775H22.8487C22.421 19.8705 20.5775 21.3754 18.4388 21.375H7.875C5.38972 21.375 3.375 19.3603 3.375 16.875V11.25C3.375 8.76472 5.38972 6.75 7.875 6.75H18.4725C20.6112 6.74956 22.4548 8.2545 22.8825 10.35ZM8.65125 17.1675C9.11724 17.1675 9.495 16.7897 9.495 16.3238V11.8238C9.495 11.3578 9.11724 10.98 8.65125 10.98C8.18526 10.98 7.8075 11.3578 7.8075 11.8238V16.3238C7.8075 16.7897 8.18526 17.1675 8.65125 17.1675Z" fill="#1E32A6"/>
</svg>
