<svg width="29" height="20" viewBox="0 0 29 20" fill="none" xmlns="http://www.w3.org/2000/svg">
<path fill-rule="evenodd" clip-rule="evenodd" d="M26.51 4.8H27.08C27.961 4.76611 28.7045 5.44925 28.745 6.33V13.2C28.6887 14.0688 27.95 14.7344 27.08 14.7H26.465C25.8947 17.494 23.4366 19.5006 20.585 19.5H6.5C3.18629 19.5 0.5 16.8137 0.5 13.5V6C0.5 2.68629 3.18629 1.26467e-07 6.5 1.26467e-07H20.63C23.4816 -0.00058163 25.9397 2.006 26.51 4.8ZM7.535 13.89C8.15632 13.89 8.66 13.3863 8.66 12.765V6.765C8.66 6.14368 8.15632 5.64 7.535 5.64C6.91368 5.64 6.41 6.14368 6.41 6.765V12.765C6.41 13.3863 6.91368 13.89 7.535 13.89Z" fill="#AD0D49"/>
</svg>
