<svg width="27" height="27" viewBox="0 0 27 27" fill="none" xmlns="http://www.w3.org/2000/svg">
<path d="M22.1836 20.6895L14.9906 13.5004L22.1836 6.36428C22.5441 5.94678 22.5246 5.32025 22.1388 4.92631C21.7531 4.53237 21.1311 4.50384 20.7114 4.86082L13.4974 11.944L6.40951 4.80788C5.99934 4.39737 5.33691 4.39737 4.92674 4.80788C4.72766 5.00669 4.61568 5.2773 4.61568 5.55961C4.61568 5.84192 4.72766 6.11254 4.92674 6.31134L12.0041 13.4369L4.81106 20.5624C4.61198 20.7612 4.5 21.0318 4.5 21.3142C4.5 21.5965 4.61198 21.8671 4.81106 22.0659C5.00952 22.2641 5.27819 22.3746 5.55771 22.3729C5.8321 22.3746 6.09627 22.2682 6.29383 22.0765L13.4974 14.9298L20.7114 22.1929C20.9098 22.3911 21.1785 22.5016 21.458 22.5C21.7339 22.4988 21.9983 22.3885 22.1942 22.1929C22.3919 21.9927 22.5019 21.7213 22.5 21.439C22.498 21.1567 22.3841 20.8869 22.1836 20.6895Z" fill="#1E32A6"/>
</svg>
