<svg width="24" height="24" viewBox="0 0 24 24" fill="none" xmlns="http://www.w3.org/2000/svg">
<path d="M23.5782 21.586L13.9875 12.0005L23.5782 2.48571C24.0588 1.92904 24.0328 1.09366 23.5185 0.568414C23.0041 0.043166 22.1748 0.00512087 21.6152 0.481096L11.9965 9.92535L2.54601 0.410511C1.99912 -0.136837 1.11588 -0.136837 0.568988 0.410511C0.303544 0.675581 0.154236 1.0364 0.154236 1.41282C0.154236 1.78923 0.303544 2.15005 0.568988 2.41512L10.0054 11.9158L0.414752 21.4166C0.149308 21.6816 0 22.0425 0 22.4189C0 22.7953 0.149308 23.1561 0.414752 23.4212C0.679363 23.6854 1.03758 23.8327 1.41028 23.8306C1.77613 23.8328 2.12836 23.6909 2.39178 23.4353L11.9965 13.9063L21.6152 23.5906C21.8798 23.8548 22.238 24.0021 22.6107 24C22.9785 23.9984 23.331 23.8514 23.5922 23.5906C23.8558 23.3236 24.0026 22.9618 24 22.5853C23.9973 22.2089 23.8455 21.8492 23.5782 21.586Z" fill="#AD0D49"/>
</svg>
