<svg width="26" height="30" viewBox="0 0 26 30" fill="none" xmlns="http://www.w3.org/2000/svg">
<path fill-rule="evenodd" clip-rule="evenodd" d="M9.85616 17.4123C10.9559 17.4123 12.0045 17.8766 12.7437 18.6908C14.2993 20.4356 14.3122 23.0658 12.7737 24.8258L9.15866 28.7108C8.6069 29.322 7.82205 29.6708 6.99866 29.6708C6.17527 29.6708 5.39041 29.322 4.83866 28.7108L1.22366 24.8258C-0.31674 23.0709 -0.31674 20.4457 1.22366 18.6908C1.96286 17.8766 3.01145 17.4123 4.11116 17.4123C5.20344 17.4123 6.24531 17.8703 6.98366 18.6744C7.72201 17.8703 8.76387 17.4123 9.85616 17.4123ZM7.46366 27.1658L11.0787 23.2958C11.8182 22.3852 11.8119 21.0792 11.0637 20.1758C10.7644 19.8184 10.3222 19.612 9.85616 19.612C9.39006 19.612 8.94791 19.8184 8.64866 20.1758L7.79366 21.1358C7.58229 21.378 7.27513 21.5152 6.95366 21.5108C6.63301 21.5112 6.32742 21.3748 6.11366 21.1358L5.25866 20.1758C4.97592 19.7922 4.52772 19.5657 4.05116 19.5657C3.5746 19.5657 3.12639 19.7922 2.84366 20.1758C2.09388 21.0806 2.09388 22.3909 2.84366 23.2958L6.44366 27.1658C6.57501 27.3104 6.75852 27.3967 6.95366 27.4058C7.14963 27.4002 7.33442 27.3132 7.46366 27.1658Z" fill="#AD0D49"/>
<path fill-rule="evenodd" clip-rule="evenodd" d="M15.1437 0.630781L25.6437 11.1308C25.8708 11.3617 25.9905 11.6773 25.9737 12.0008V22.5008C25.9737 26.4358 22.7837 29.6258 18.8487 29.6258H14.4987C13.8773 29.6258 13.3737 29.1221 13.3737 28.5008C13.3737 27.8795 13.8773 27.3758 14.4987 27.3758H18.8487C21.5376 27.3675 23.7154 25.1897 23.7237 22.5008V13.1258H17.3487C15.0705 13.1258 13.2237 11.279 13.2237 9.00078V2.59578H9.84866C8.55051 2.59576 7.30597 3.11349 6.39086 4.03423C5.47575 4.95496 4.96567 6.20266 4.97366 7.50078V15.0008C4.97366 15.6221 4.46998 16.1258 3.84866 16.1258C3.22734 16.1258 2.72366 15.6221 2.72366 15.0008V7.50078C2.70363 5.59815 3.44544 3.76655 4.78382 2.41409C6.12219 1.06163 7.94592 0.300676 9.84866 0.300781H14.3487C14.6469 0.301044 14.9329 0.419743 15.1437 0.630781ZM15.4737 4.15578V9.00078C15.49 10.0246 16.3247 10.8459 17.3487 10.8458H22.1637L15.4737 4.15578Z" fill="#AD0D49"/>
</svg>
