<svg width="27" height="27" viewBox="0 0 27 27" fill="none" xmlns="http://www.w3.org/2000/svg">
<path d="M13.5566 2.25L12.0154 5.4C10.914 7.65039 9.438 9.69707 7.65037 11.4525L7.44787 11.6438C6.29976 12.7584 5.64377 14.2849 5.62537 15.885V16.0875C5.59496 19.2208 7.46205 22.0614 10.3504 23.2763L10.6429 23.4C12.5372 24.2046 14.6773 24.2046 16.5716 23.4H16.6391C19.549 22.1357 21.4161 19.2487 21.3754 16.0763V11.1937C20.4056 13.4083 18.6446 15.1815 16.4366 16.1663C16.4366 16.1663 16.4366 16.1663 16.3691 16.1663C16.3016 16.1663 15.5141 16.4925 15.1766 16.1663C14.8752 15.8612 14.8463 15.3801 15.1091 15.0413L15.1879 14.985H15.2441C17.8269 13.0219 18.429 9.38444 16.6166 6.69375C15.1541 4.46625 13.5566 2.25 13.5566 2.25Z" fill="#1E32A6"/>
</svg>
