<svg width="22" height="29" viewBox="0 0 22 29" fill="none" xmlns="http://www.w3.org/2000/svg">
<path fill-rule="evenodd" clip-rule="evenodd" d="M14.8402 18.54H14.9302C17.8773 17.2391 20.2277 14.878 21.5152 11.925V18.465C21.5272 22.6569 19.0447 26.4542 15.2002 28.125H15.0952C13.824 28.6633 12.4556 28.9339 11.0752 28.92C9.74092 28.9236 8.41962 28.6584 7.19018 28.14L6.80018 27.975C2.96397 26.3701 0.475883 22.6083 0.500176 18.45V18.18C0.528957 16.0505 1.39679 14.0184 2.91518 12.525L3.18518 12.27C5.57204 9.93231 7.54054 7.20279 9.00518 4.2L11.0602 0C11.0602 0 13.1902 3 15.1702 6C17.5849 9.58289 16.7818 14.4279 13.3402 17.04H13.1602C12.8029 17.4897 12.8417 18.1363 13.2502 18.54C13.421 18.6843 13.6424 18.7545 13.8652 18.735C14.1983 18.721 14.5273 18.6552 14.8402 18.54ZM14.1802 26.04H14.2852V26.025C17.2844 24.7105 19.2295 21.7545 19.2502 18.48C18.2386 19.3703 17.0818 20.0806 15.8302 20.58L15.6352 20.655C15.0705 20.8748 14.4711 20.9917 13.8652 21C13.0441 21.029 12.2471 20.7199 11.6602 20.145C10.4347 18.9338 10.3183 16.994 11.3902 15.645C11.5211 15.4814 11.6723 15.3352 11.8402 15.21H11.9452C14.4745 13.3233 15.0696 9.77937 13.2952 7.17C12.6502 6.21 12.0052 5.25 11.4052 4.395L11.0302 5.175C9.44262 8.37477 7.32239 11.2812 4.76019 13.77L4.49019 14.025C3.40071 15.1002 2.77604 16.5595 2.75019 18.09V18.375C2.70955 21.6437 4.6557 24.6104 7.67019 25.875L8.06019 26.04C10.0157 26.8703 12.2247 26.8703 14.1802 26.04Z" fill="#AD0D49"/>
</svg>
