<svg width="27" height="27" viewBox="0 0 27 27" fill="none" xmlns="http://www.w3.org/2000/svg">
<path d="M21.1029 6.2027H19.7762C18.4523 6.27742 17.3177 5.26561 17.2395 3.94054V3.82378C17.202 3.18468 16.9118 2.58684 16.433 2.16237C15.9543 1.73789 15.3264 1.52172 14.6882 1.56162H5.56183V1.09459C5.56183 0.490067 5.07229 0 4.46841 0C3.86454 0 3.375 0.490067 3.375 1.09459V25.9054C3.375 26.5099 3.86454 27 4.46841 27C5.07229 27 5.56183 26.5099 5.56183 25.9054V13.8211H7.26755C8.5914 13.7464 9.72601 14.7582 9.80427 16.0832V16.1708C9.88252 17.4959 11.0171 18.5077 12.341 18.433H21.0883C22.4121 18.5077 23.5467 17.4959 23.625 16.1708V8.43568C23.524 7.13193 22.4078 6.14365 21.1029 6.2027Z" fill="#DDFF63"/>
</svg>
