<svg width="11" height="26" viewBox="0 0 11 26" fill="none" xmlns="http://www.w3.org/2000/svg">
<path d="M5.22917 4.75C6.43729 4.75 7.41667 3.77062 7.41667 2.5625C7.41667 1.35438 6.43729 0.375 5.22917 0.375C4.02104 0.375 3.04167 1.35438 3.04167 2.5625C3.04167 3.77062 4.02104 4.75 5.22917 4.75Z" fill="#DDFF63"/>
<path d="M7.18333 22.2646H8.875C9.68042 22.2646 10.3333 22.9175 10.3333 23.7229C10.3333 24.5283 9.68042 25.1812 8.875 25.1812H1.58333C0.777918 25.1812 0.125 24.5283 0.125 23.7229C0.125 22.9175 0.777918 22.2646 1.58333 22.2646H4.26667V9.13958H2.80833C2.00292 9.13958 1.35 8.48666 1.35 7.68125C1.35 6.87583 2.00292 6.22292 2.80833 6.22292H5.725C6.53042 6.22292 7.18333 6.87583 7.18333 7.68125V22.2646Z" fill="#DDFF63"/>
</svg>
