<svg width="45" height="45" viewBox="0 0 45 45" fill="none" xmlns="http://www.w3.org/2000/svg">
<path d="M22.4488 1H22.5512C34.3971 1 44 10.6029 44 22.4488V22.5512C44 34.3971 34.3971 44 22.5512 44H22.4488C10.6029 44 1 34.3971 1 22.5512V22.4488C1 10.6029 10.6029 1 22.4488 1Z" fill="#061152" stroke="white" stroke-width="2"/>
<path d="M29.4631 9.15625H15.5388C11.692 9.15625 8.5625 12.2857 8.5625 16.1326V28.8712C8.5625 32.7181 11.692 35.8476 15.5388 35.8476H29.4631C33.3099 35.8476 36.4394 32.7181 36.4394 28.8712V16.1326C36.4394 12.2857 33.3099 9.15625 29.4631 9.15625ZM11.0235 16.1326C11.0235 13.6432 13.0494 11.6173 15.5388 11.6173H29.4631C31.9525 11.6173 33.9784 13.6432 33.9784 16.1326V28.8712C33.9784 31.3606 31.9525 33.3865 29.4631 33.3865H15.5388C13.0494 33.3865 11.0235 31.3606 11.0235 28.8712V16.1326Z" fill="white"/>
<path d="M22.5009 28.99C26.0781 28.99 28.99 26.0797 28.99 22.5009C28.99 18.9221 26.0797 16.0117 22.5009 16.0117C18.9221 16.0117 16.0117 18.9221 16.0117 22.5009C16.0117 26.0797 18.9221 28.99 22.5009 28.99ZM22.5009 18.4743C24.7223 18.4743 26.529 20.2811 26.529 22.5025C26.529 24.7238 24.7223 26.5306 22.5009 26.5306C20.2795 26.5306 18.4727 24.7238 18.4727 22.5025C18.4727 20.2811 20.2795 18.4743 22.5009 18.4743Z" fill="white"/>
<path d="M29.5922 17.0593C30.5554 17.0593 31.3406 16.2758 31.3406 15.3109C31.3406 14.3461 30.557 13.5625 29.5922 13.5625C28.6273 13.5625 27.8438 14.3461 27.8438 15.3109C27.8438 16.2758 28.6273 17.0593 29.5922 17.0593Z" fill="white"/>
</svg>
