<svg width="45" height="45" viewBox="0 0 45 45" fill="none" xmlns="http://www.w3.org/2000/svg">
<path fill-rule="evenodd" clip-rule="evenodd" d="M23.1562 13.35C20.6343 13.2945 18.1964 14.2577 16.3934 16.0219C14.5904 17.7861 13.5744 20.2024 13.575 22.725C13.561 24.7409 14.1844 26.7096 15.3562 28.35C17.229 30.856 18.2714 33.8848 18.3375 37.0125C18.6367 39.3735 20.6452 41.1434 23.025 41.1434C25.4048 41.1434 27.4133 39.3735 27.7125 37.0125C27.6174 34.017 28.5504 31.0793 30.3562 28.6875C31.6338 27.0861 32.3516 25.1104 32.4 23.0625C32.4847 17.8452 28.3713 13.5232 23.1562 13.35ZM20.7938 36.4313C20.1049 36.3184 19.5992 35.7231 19.5992 35.025C19.5992 34.3269 20.1049 33.7316 20.7938 33.6188H25.1063C25.7951 33.7316 26.3008 34.3269 26.3008 35.025C26.3008 35.7231 25.7951 36.3184 25.1063 36.4313H20.7938ZM27.9938 22.425C27.9832 23.1945 28.5932 23.8295 29.3625 23.85L29.4375 23.8688C30.1892 23.8587 30.7962 23.2517 30.8063 22.5C30.8414 20.5076 30.0821 18.5831 28.6961 17.1514C27.3101 15.7196 25.4113 14.8983 23.4188 14.8687C22.6421 14.8687 22.0125 15.4983 22.0125 16.275C22.0125 17.0517 22.6421 17.6812 23.4188 17.6812C25.9641 17.7911 27.9762 19.8774 27.9938 22.425Z" fill="#1E32A6"/>
<path d="M23.025 11.6438C23.7974 11.6337 24.4212 11.0099 24.4313 10.2375V5.15625C24.4313 4.65385 24.1632 4.1896 23.7281 3.9384C23.293 3.6872 22.757 3.6872 22.3219 3.9384C21.8868 4.1896 21.6188 4.65385 21.6188 5.15625V10.2375C21.6289 11.0099 22.2526 11.6337 23.025 11.6438Z" fill="#1E32A6"/>
<path d="M36.7312 9.13125C36.1822 8.5829 35.2928 8.5829 34.7437 9.13125L31.2375 12.6187C30.8358 13.0209 30.7158 13.6253 30.9332 14.1505C31.1507 14.6756 31.6629 15.0182 32.2312 15.0187C32.6045 15.0205 32.9627 14.8718 33.225 14.6062L36.7312 11.1187C37.2796 10.5697 37.2796 9.68028 36.7312 9.13125Z" fill="#1E32A6"/>
<path d="M40.5562 20.6812H35.625C34.8484 20.6812 34.2188 21.3108 34.2188 22.0875C34.2188 22.8641 34.8484 23.4937 35.625 23.4937H40.5562C41.3329 23.4937 41.9625 22.8641 41.9625 22.0875C41.9625 21.3108 41.3329 20.6812 40.5562 20.6812Z" fill="#1E32A6"/>
<path d="M10.0875 20.6812H5.15625C4.3796 20.6812 3.75 21.3108 3.75 22.0875C3.75 22.8641 4.3796 23.4937 5.15625 23.4937H10.0875C10.8642 23.4937 11.4937 22.8641 11.4937 22.0875C11.4937 21.3108 10.8642 20.6812 10.0875 20.6812Z" fill="#1E32A6"/>
<path d="M14.6063 14.6062C14.8743 14.3451 15.0254 13.9867 15.0254 13.6125C15.0254 13.2383 14.8743 12.8799 14.6063 12.6187L11.1188 9.13125C10.7682 8.75502 10.2402 8.60016 9.74196 8.7274C9.24371 8.85465 8.85465 9.24371 8.7274 9.74196C8.60016 10.2402 8.75503 10.7682 9.13125 11.1187L12.6188 14.6062C12.881 14.8718 13.2393 15.0205 13.6125 15.0188C13.9862 15.0227 14.3452 14.8736 14.6063 14.6062Z" fill="#1E32A6"/>
</svg>
