<svg width="45" height="45" viewBox="0 0 43 19" fill="none" xmlns="http://www.w3.org/2000/svg">
<path d="M8.15057 0.545454V18H4.98864V3.62216H4.88636L0.803977 6.23011V3.33239L5.14205 0.545454H8.15057ZM12.8361 18.1875C12.3191 18.1875 11.8759 18.0057 11.5066 17.642C11.1372 17.2784 10.9554 16.8352 10.9611 16.3125C10.9554 15.8011 11.1372 15.3636 11.5066 15C11.8759 14.6364 12.3191 14.4545 12.8361 14.4545C13.3361 14.4545 13.7708 14.6364 14.1401 15C14.5151 15.3636 14.7054 15.8011 14.7111 16.3125C14.7054 16.6591 14.6145 16.9744 14.4384 17.2585C14.2679 17.5426 14.0407 17.7699 13.7566 17.9403C13.4782 18.1051 13.1713 18.1875 12.8361 18.1875ZM22.9996 18.2386C21.8633 18.2386 20.8462 18.0256 19.9485 17.5994C19.0508 17.1676 18.3377 16.5767 17.8093 15.8267C17.2866 15.0767 17.0082 14.2187 16.9741 13.2528H20.0422C20.0991 13.9687 20.4087 14.554 20.9712 15.0085C21.5337 15.4574 22.2099 15.6818 22.9996 15.6818C23.6189 15.6818 24.1701 15.5398 24.653 15.2557C25.136 14.9716 25.5167 14.5767 25.7951 14.071C26.0735 13.5653 26.2099 12.9886 26.2042 12.3409C26.2099 11.6818 26.0707 11.0966 25.7866 10.5852C25.5025 10.0739 25.1133 9.6733 24.6189 9.38352C24.1246 9.08807 23.5564 8.94034 22.9144 8.94034C22.3917 8.93466 21.8775 9.03125 21.3718 9.23011C20.8661 9.42898 20.4655 9.69034 20.1701 10.0142L17.315 9.54545L18.2269 0.545454H28.3519V3.1875H20.8434L20.3405 7.81534H20.4428C20.7667 7.43466 21.2241 7.11932 21.815 6.86932C22.4059 6.61364 23.0536 6.4858 23.7582 6.4858C24.815 6.4858 25.7582 6.7358 26.5877 7.2358C27.4172 7.73011 28.0707 8.41193 28.5479 9.28125C29.0252 10.1506 29.2638 11.1449 29.2638 12.2642C29.2638 13.4176 28.9968 14.446 28.4627 15.3494C27.9343 16.2472 27.1985 16.9545 26.2553 17.4716C25.3178 17.983 24.2326 18.2386 22.9996 18.2386ZM30.7171 7.44034V4.90909H42.1717V7.44034H37.9359V18H34.9529V7.44034H30.7171Z" fill="#1E32A6"/>
</svg>
