<svg width="32" height="30" viewBox="0 0 32 30" fill="none" xmlns="http://www.w3.org/2000/svg">
<path fill-rule="evenodd" clip-rule="evenodd" d="M31.4341 8.69977V8.89477C31.4066 9.64494 31.1264 10.3638 30.6391 10.9348L21.5491 21.2398L17.3641 25.9948C16.7398 26.6985 15.8448 27.1023 14.9041 27.1048C14.6947 27.1269 14.4835 27.1269 14.2741 27.1048H14.1841C14.0125 27.0799 13.8456 27.0294 13.6891 26.9548H13.5241C13.3832 26.8967 13.2477 26.8265 13.1191 26.7448L12.9691 26.6398L12.6841 26.4298L10.6141 28.4998C10.217 28.8962 9.67502 29.1129 9.11408 29.0998C8.71084 29.0854 8.32026 28.9552 7.98908 28.7248C7.61374 29.1061 7.12369 29.3537 6.59408 29.4298L2.82908 29.8648H2.60408C2.21478 29.8712 1.83825 29.7259 1.55408 29.4598L0.864078 28.7698C0.232697 27.9402 0.371984 26.7596 1.17908 26.0998L3.27908 23.9998C2.69881 23.1777 2.79375 22.0575 3.50408 21.3448L5.57408 19.2748C5.50401 19.1833 5.43892 19.0882 5.37908 18.9898C5.32935 18.9335 5.28421 18.8733 5.24408 18.8098L4.94408 18.2098C4.82408 18.0748 4.82408 17.9398 4.82408 17.7898V17.5798C4.80871 17.4201 4.80871 17.2594 4.82408 17.0998V16.3798C4.83331 16.3556 4.83331 16.3289 4.82408 16.3048C4.97731 15.6387 5.34007 15.0394 5.85908 14.5948L13.8241 7.57477L20.9041 1.34977C21.524 0.810356 22.3174 0.512171 23.1391 0.509766C24.0293 0.511231 24.8823 0.867528 25.5091 1.49977L30.5191 6.41977C30.9786 6.87466 31.2964 7.453 31.4341 8.08477C31.4271 8.11436 31.4271 8.14518 31.4341 8.17477C31.4488 8.34946 31.4488 8.52507 31.4341 8.69977ZM14.8591 24.9448C15.1598 24.9475 15.4461 24.8154 15.6391 24.5848L19.7191 19.8898L28.8691 9.50977C29.2653 9.08827 29.2653 8.43127 28.8691 8.00977L23.9191 3.05977C23.7083 2.84873 23.4223 2.73003 23.1241 2.72977C22.8591 2.72838 22.6028 2.82448 22.4041 2.99977L15.3541 9.25477L7.22408 16.4248C7.13449 16.5185 7.05873 16.6246 6.99908 16.7398V16.8148C6.97802 16.9035 6.97802 16.996 6.99908 17.0848C6.97638 17.2037 6.97638 17.3258 6.99908 17.4448C7.07458 17.555 7.17815 17.643 7.29908 17.6998C7.28864 17.734 7.28864 17.7705 7.29908 17.8048L14.1241 24.7048C14.2381 24.8082 14.3704 24.8896 14.5141 24.9448C14.6035 24.9591 14.6946 24.9591 14.7841 24.9448H14.8591ZM2.87408 27.5848L4.16408 26.3098L5.18408 27.3148L2.87408 27.5848ZM5.22908 22.8148L9.11408 26.7598L11.0641 24.7648L7.16408 20.8648L5.22908 22.8148Z" fill="#AD0D49"/>
<path d="M22.5241 7.81477L15.7741 14.5648C15.3354 15.004 15.3354 15.7155 15.7741 16.1548C15.9839 16.3672 16.2705 16.4862 16.5691 16.4848C16.8687 16.4915 17.1573 16.3717 17.3641 16.1548L24.1141 9.40477C24.3285 9.19583 24.4494 8.90915 24.4494 8.60977C24.4494 8.31038 24.3285 8.0237 24.1141 7.81477C23.6749 7.37609 22.9633 7.37609 22.5241 7.81477Z" fill="#AD0D49"/>
</svg>
