<svg width="45" height="45" viewBox="0 0 45 45" fill="none" xmlns="http://www.w3.org/2000/svg">
<path d="M22.275 14.0067C20.6907 14.0067 19.4063 15.2911 19.4063 16.8754C19.4063 18.4598 20.6907 19.7442 22.275 19.7442C23.8594 19.7442 25.1438 18.4598 25.1438 16.8754C25.1336 15.2953 23.8551 14.0169 22.275 14.0067Z" fill="#1E32A6"/>
<path d="M20.8688 22.9692C20.8789 22.1968 21.5026 21.573 22.275 21.5629C23.0475 21.573 23.6712 22.1968 23.6813 22.9692V26.2504C23.6813 27.0271 23.0517 27.6567 22.275 27.6567C21.4984 27.6567 20.8688 27.0271 20.8688 26.2504V22.9692Z" fill="#1E32A6"/>
<path fill-rule="evenodd" clip-rule="evenodd" d="M33.1125 26.3817L37.05 27.6942C38.142 28.0712 38.8831 29.0892 38.9063 30.2442V37.7442C38.9063 39.6806 37.3365 41.2505 35.4 41.2505C35.0233 41.2508 34.6493 41.1874 34.2938 41.063L32.4188 40.4254C31.8827 40.9623 31.1524 41.2598 30.3938 41.2505H27.5438C26.2175 41.3258 25.0751 40.3251 24.975 39.0005V34.1067C24.8748 32.7096 23.6737 31.6503 22.275 31.7254C20.8763 31.6503 19.6753 32.7096 19.575 34.1067V39.0005C19.475 40.3251 18.3326 41.3258 17.0063 41.2505H14.1563C13.3976 41.2598 12.6674 40.9623 12.1313 40.4254L10.2563 41.063C9.90076 41.1874 9.52672 41.2508 9.15003 41.2505C7.23521 41.2611 5.66596 39.7336 5.62503 37.8192V30.3192C5.61925 29.1316 6.37479 28.0739 7.50003 27.6942L11.4375 26.3817V20.4192C11.5712 13.8103 15.0344 7.71626 20.6438 4.2192C21.1311 3.90918 21.6975 3.74642 22.275 3.75045C22.853 3.74316 23.4203 3.90618 23.9063 4.2192C29.5157 7.71626 32.9789 13.8103 33.1125 20.4192V26.3817ZM9.33753 38.4004L9.93753 38.1942L9.99378 29.8504L8.45628 30.3567V37.7442C8.45628 38.1273 8.76688 38.438 9.15003 38.438L9.33753 38.4004ZM30.1125 38.1942H27.9V34.1067C27.7694 31.0957 25.2889 28.7226 22.275 28.7254C19.2612 28.7226 16.7806 31.0957 16.65 34.1067V38.2504H14.4375V20.4192C14.5925 14.8369 17.5356 9.70403 22.275 6.75045C27.0271 9.70324 29.9785 14.8453 30.1313 20.4379L30.1125 38.1942ZM35.4375 38.3817C35.8207 38.3817 36.1313 38.0711 36.1313 37.6879V30.3192L34.6125 29.8129V38.1754L35.2125 38.3817H35.4375Z" fill="#1E32A6"/>
</svg>
