<svg width="28" height="30" viewBox="0 0 28 30" fill="none" xmlns="http://www.w3.org/2000/svg">
<path d="M13.82 8.20519C12.5525 8.20519 11.525 9.23269 11.525 10.5002C11.525 11.7677 12.5525 12.7952 13.82 12.7952C15.0875 12.7952 16.115 11.7677 16.115 10.5002C16.1068 9.2361 15.0841 8.21337 13.82 8.20519Z" fill="#AD0D49"/>
<path d="M12.695 15.3752C12.7031 14.7572 13.2021 14.2583 13.82 14.2502C14.438 14.2583 14.937 14.7572 14.945 15.3752V18.0002C14.945 18.6215 14.4414 19.1252 13.82 19.1252C13.1987 19.1252 12.695 18.6215 12.695 18.0002V15.3752Z" fill="#AD0D49"/>
<path fill-rule="evenodd" clip-rule="evenodd" d="M22.49 18.1052L25.64 19.1552C26.5136 19.4568 27.1065 20.2712 27.125 21.1952V27.1952C27.125 28.7443 25.8692 30.0002 24.32 30.0002C24.0187 30.0005 23.7194 29.9498 23.435 29.8502L21.935 29.3402C21.5062 29.7697 20.9219 30.0077 20.315 30.0002H18.035C16.974 30.0604 16.0601 29.2599 15.98 28.2002V24.2852C15.8998 23.1675 14.939 22.3201 13.82 22.3802C12.7011 22.3201 11.7402 23.1675 11.66 24.2852V28.2002C11.58 29.2599 10.6661 30.0604 9.60503 30.0002H7.32503C6.71811 30.0077 6.1339 29.7697 5.70503 29.3402L4.20503 29.8502C3.92061 29.9498 3.62138 30.0005 3.32003 30.0002C1.78817 30.0087 0.53277 28.7867 0.500026 27.2552V21.2552C0.495402 20.3051 1.09983 19.4589 2.00003 19.1552L5.15003 18.1052V13.3352C5.25694 8.04809 8.02749 3.17283 12.515 0.375187C12.9049 0.127177 13.358 -0.00303542 13.82 0.000187476C14.2824 -0.00564608 14.7363 0.124776 15.125 0.375187C19.6126 3.17283 22.3831 8.04809 22.49 13.3352V18.1052ZM3.47002 27.7202L3.95002 27.5552L3.99502 20.8802L2.76502 21.2852V27.1952C2.76502 27.5017 3.0135 27.7502 3.32002 27.7502L3.47002 27.7202ZM20.09 27.5552H18.32V24.2852C18.2155 21.8764 16.2311 19.9779 13.82 19.9802C11.4089 19.9779 9.4245 21.8764 9.32003 24.2852V27.6002H7.55003V13.3352C7.67396 8.86935 10.0285 4.76305 13.82 2.40019C17.6217 4.76242 19.9828 8.87606 20.105 13.3502L20.09 27.5552ZM24.35 27.7052C24.6565 27.7052 24.905 27.4567 24.905 27.1502V21.2552L23.69 20.8502V27.5402L24.17 27.7052H24.35Z" fill="#AD0D49"/>
</svg>
