<svg width="45" height="45" viewBox="0 0 45 45" fill="none" xmlns="http://www.w3.org/2000/svg">
<path d="M27.0749 8.50641L28.3124 12.2564C28.8716 13.9921 30.4826 15.172 32.3061 15.1814H36.2061C38.0352 15.1698 39.6614 16.3432 40.227 18.0827C40.7925 19.8222 40.1673 21.7277 38.6811 22.7939L35.4749 25.1189C33.9989 26.1904 33.3787 28.089 33.9374 29.8252L35.1749 33.5752C35.7869 35.3173 35.1894 37.2548 33.7024 38.3496C32.2154 39.4443 30.1879 39.4395 28.7061 38.3377L25.5561 35.9939C24.0795 34.9242 22.0827 34.9242 20.6061 35.9939L17.4561 38.3377C15.9826 39.4161 13.9812 39.419 12.5046 38.3447C11.0281 37.2705 10.4148 35.3653 10.9874 33.6314L12.2249 29.8814C12.7835 28.1452 12.1633 26.2466 10.6874 25.1752L7.40612 22.8127C5.8898 21.7442 5.25395 19.8076 5.84183 18.0483C6.42971 16.289 8.10208 15.1236 9.95612 15.1814H13.8561C15.6696 15.1774 17.2776 14.0148 17.8499 12.2939L19.0874 8.54392C19.6421 6.8118 21.2487 5.63359 23.0675 5.62505C24.8863 5.61651 26.5039 6.77959 27.0749 8.50641Z" fill="#1E32A6"/>
</svg>
