<svg width="45" height="45" viewBox="0 0 45 45" fill="none" xmlns="http://www.w3.org/2000/svg">
<path fill-rule="evenodd" clip-rule="evenodd" d="M20.3509 0.0589447C19.9735 0.100725 19.2852 0.197669 18.821 0.274281C12.5981 1.30137 7.06148 4.92751 3.56453 10.2664C2.84536 11.3643 1.74517 13.5785 1.28388 14.8562C0.877989 15.9805 0.384623 17.9396 0.192783 19.1887C-0.0192969 20.5693 -0.0661208 23.5211 0.101107 24.9609C0.605622 29.3031 2.10424 32.9821 4.77432 36.4327C5.51184 37.3859 7.63486 39.51 8.55916 40.2195C12.0679 42.9131 15.6909 44.3899 20.0265 44.8941C21.6048 45.0775 24.4303 45.0156 25.9894 44.7635C32.4546 43.7176 38.0656 40.0163 41.5447 34.5024C47.0975 25.7021 45.854 14.1365 38.5605 6.74629C35.0493 3.18861 30.73 0.971507 25.8394 0.216629C24.5715 0.0209396 21.4913 -0.0675974 20.3509 0.0589447ZM32.1855 13.585C32.0912 13.6103 31.6859 13.759 31.285 13.9154C29.8271 14.4842 25.0759 16.3195 21.8517 17.5593C13.0884 20.929 10.2169 22.0456 9.90479 22.2049C9.00382 22.6647 8.90262 23.2536 9.65738 23.6444C9.76612 23.7007 11.135 24.1464 12.6993 24.6349C15.0004 25.3534 15.5767 25.5054 15.7175 25.431C15.8132 25.3804 16.8177 24.7528 17.9497 24.0363C19.8083 22.8599 21.3185 21.9091 26.9054 18.3979C27.869 17.7923 28.7469 17.2743 28.8562 17.2469C29.1041 17.1846 29.3126 17.2596 29.3126 17.411C29.3126 17.4743 28.8013 17.987 28.1763 18.5504C26.5333 20.0313 22.9104 23.3079 21.2098 24.8509C20.4036 25.5823 19.5169 26.3834 19.2392 26.6312L18.7343 27.0817L18.5363 29.8885C18.4274 31.4334 18.3712 32.7279 18.4115 32.7681C18.5905 32.9473 19.2022 32.4952 20.6182 31.1374C21.4437 30.3458 22.1457 29.6896 22.1783 29.6792C22.2109 29.6688 22.8357 30.1032 23.5668 30.6446C27.1215 33.2771 27.9302 33.8593 28.1464 33.9415C28.2751 33.9905 28.5475 34.0306 28.7519 34.0306C29.0691 34.0306 29.1618 33.9866 29.3872 33.73C29.5323 33.5645 29.709 33.2268 29.7798 32.9793C29.9038 32.5455 30.4827 29.8607 31.5414 24.808C31.8182 23.4868 32.3947 20.7614 32.8226 18.7515C33.2504 16.7416 33.6005 14.9548 33.6005 14.7809C33.6005 14.3584 33.4056 13.9145 33.145 13.7437C32.9101 13.5897 32.4506 13.5137 32.1855 13.585Z" fill="white"/>
</svg>
