<svg width="45" height="45" viewBox="0 0 45 45" fill="none" xmlns="http://www.w3.org/2000/svg">
<path d="M22.5937 20.55H16.7437C15.9671 20.55 15.3375 19.9204 15.3375 19.1438C15.3375 18.3671 15.9671 17.7375 16.7437 17.7375H22.5937C23.3704 17.7375 24 18.3671 24 19.1438C24 19.9204 23.3704 20.55 22.5937 20.55Z" fill="#1E32A6"/>
<path d="M16.7437 23.5688H28.2562C29.0329 23.5688 29.6625 24.1984 29.6625 24.975C29.6625 25.7517 29.0329 26.3813 28.2562 26.3813H16.7437C15.9671 26.3813 15.3375 25.7517 15.3375 24.975C15.3375 24.1984 15.9671 23.5688 16.7437 23.5688Z" fill="#1E32A6"/>
<path d="M26.6812 29.0625H16.7437C15.9671 29.0625 15.3375 29.6921 15.3375 30.4688C15.3375 31.2454 15.9671 31.875 16.7437 31.875H26.6812C27.4579 31.875 28.0875 31.2454 28.0875 30.4688C28.0875 29.6921 27.4579 29.0625 26.6812 29.0625Z" fill="#1E32A6"/>
<path fill-rule="evenodd" clip-rule="evenodd" d="M26.7563 3.75C28.2735 3.74791 29.5264 4.93486 29.6063 6.45001C34.0592 6.95069 37.443 10.6881 37.5 15.1688V34.0875C37.4897 39.002 33.5083 42.9834 28.5937 42.9938H16.4062C11.4917 42.9834 7.51031 39.002 7.5 34.0875V15.1688C7.55702 10.6881 10.9408 6.95069 15.3937 6.45001C15.4828 4.93911 16.7302 3.75728 18.2437 3.75H26.7563ZM26.7937 6.45001H18.2437V8.68126H26.7937V6.45001ZM34.6875 34.0875C34.6875 37.456 31.9623 40.1897 28.5937 40.2H16.4062C13.0377 40.1897 10.3125 37.456 10.3125 34.0875V15.1688C10.32 12.1854 12.4863 9.64609 15.4312 9.16876C15.6614 10.5401 16.8533 11.5412 18.2437 11.5313H26.7562C28.1467 11.5412 29.3386 10.5401 29.5687 9.16876C32.5137 9.64609 34.68 12.1854 34.6875 15.1688V34.0875Z" fill="#1E32A6"/>
</svg>
