<svg width="45" height="45" viewBox="0 0 45 45" fill="none" xmlns="http://www.w3.org/2000/svg">
<circle cx="22.5" cy="22.5" r="21.5" fill="#061152" stroke="white" stroke-width="2"/>
<path d="M26.7304 27.8572C21.1678 27.8572 16.6421 23.3287 16.6406 17.7645C16.6421 16.354 17.7903 15.207 19.1973 15.207C19.342 15.207 19.4851 15.2192 19.6222 15.2436C19.9237 15.2939 20.21 15.3959 20.4734 15.5498C20.5115 15.5726 20.5374 15.6091 20.5434 15.6518L21.1312 19.3578C21.1388 19.4004 21.1251 19.4446 21.0962 19.4766C20.7719 19.836 20.3577 20.095 19.8963 20.2245L19.674 20.2869L19.7577 20.5017C20.516 22.4331 22.0601 23.9761 23.9925 24.7377L24.2072 24.823L24.2696 24.6006C24.3991 24.1391 24.6579 23.7248 25.0173 23.4003C25.0432 23.376 25.0782 23.3638 25.1132 23.3638C25.1209 23.3638 25.1285 23.3638 25.1376 23.3653L28.8425 23.9533C28.8866 23.9609 28.9232 23.9852 28.946 24.0233C29.0983 24.2868 29.2003 24.5747 29.2521 24.8763C29.2765 25.0104 29.2871 25.152 29.2871 25.2998C29.2871 26.7087 28.1405 27.8557 26.7304 27.8572Z" fill="white"/>
<path d="M36.5952 20.2797C36.2953 16.8891 34.7421 13.7437 32.2219 11.4238C29.6865 9.09027 26.3973 7.80469 22.9574 7.80469C15.4076 7.80469 9.26483 13.9493 9.26483 21.5013C9.26483 24.036 9.96376 26.5051 11.287 28.6558L8.33594 35.1904L17.7846 34.1835C19.4277 34.8568 21.1667 35.198 22.9559 35.198C23.4264 35.198 23.9092 35.1736 24.3934 35.1234C24.8198 35.0777 25.2507 35.0106 25.674 34.9253C31.9965 33.6474 36.612 28.0344 36.6485 21.5745V21.5013C36.6485 21.0901 36.6303 20.6788 36.5937 20.2813L36.5952 20.2797ZM18.1486 31.3154L12.921 31.8728L14.4818 28.4136L14.1696 27.9948C14.1468 27.9643 14.1239 27.9338 14.0981 27.8988C12.7428 26.0268 12.0271 23.8151 12.0271 21.5029C12.0271 15.474 16.9304 10.5693 22.9574 10.5693C28.6038 10.5693 33.3898 14.9759 33.8512 20.6011C33.8756 20.9027 33.8893 21.2058 33.8893 21.5044C33.8893 21.5897 33.8878 21.6735 33.8863 21.7633C33.7705 26.8067 30.2484 31.0899 25.3208 32.1805C24.9446 32.2643 24.5594 32.3283 24.1756 32.3694C23.7767 32.4151 23.3671 32.438 22.9605 32.438C21.5123 32.438 20.1053 32.1577 18.776 31.6032C18.6283 31.5438 18.4836 31.4798 18.3481 31.4143L18.1501 31.3184L18.1486 31.3154Z" fill="white"/>
</svg>
