<svg width="20" height="20" viewBox="0 0 20 20" fill="none" xmlns="http://www.w3.org/2000/svg">
<path d="M4.4003 0.0674438C3.66122 0.182791 2.80679 0.533106 2.18306 0.973137C2.02926 1.08421 1.72594 1.34908 1.51661 1.55842C0.905693 2.17361 0.495568 2.8486 0.234967 3.6774C0 4.43357 0 4.4122 0 10.0002C0 15.6351 0 15.5753 0.252056 16.3699C0.516928 17.1859 0.927053 17.8523 1.55933 18.4803C2.3454 19.2664 3.34508 19.7705 4.44302 19.9371C5.05394 20.0269 14.9525 20.0269 15.5634 19.9329C17.8105 19.5954 19.592 17.8096 19.9295 15.5582C20.0235 14.9516 20.0235 5.04875 19.9295 4.44211C19.592 2.19069 17.8105 0.404943 15.5634 0.0674438C14.9781 -0.0222702 4.96849 -0.0222702 4.4003 0.0674438ZM15.871 0.99877C17.409 1.41744 18.5752 2.588 19.0025 4.12597L19.1178 4.55319V10.0002V15.4471L19.0025 15.8743C18.5752 17.4123 17.409 18.5786 15.871 19.0058L15.4438 19.1212H10.0182H4.59255L4.2166 19.0272C3.26391 18.7837 2.43512 18.271 1.85838 17.5618C1.37563 16.9723 1.05095 16.2631 0.922781 15.5155C0.862971 15.1609 0.854427 14.5115 0.854427 10.0002C0.854427 5.48878 0.862971 4.83942 0.922781 4.48483C1.23465 2.6649 2.64445 1.24655 4.46438 0.926144C4.75061 0.874878 5.69048 0.866333 10.125 0.870605L15.4438 0.87915L15.871 0.99877Z" fill="#FF99A2"/>
<path d="M15.3497 2.81418C14.6789 3.05342 14.3201 3.59598 14.3628 4.29234C14.397 4.82208 14.7131 5.2792 15.2044 5.50562C15.4009 5.59961 15.5077 5.6167 15.7854 5.6167C16.2212 5.6167 16.5459 5.47999 16.8406 5.16813C17.49 4.47604 17.2807 3.30975 16.4262 2.89108C16.1016 2.73301 15.6658 2.69883 15.3497 2.81418ZM16.1272 3.69424C16.4903 3.93348 16.4305 4.54012 16.0247 4.72382C15.7854 4.83063 15.5761 4.78363 15.371 4.5743C15.2258 4.43332 15.2087 4.3906 15.2087 4.20689C15.2087 3.95057 15.3155 3.76259 15.512 3.66433C15.6829 3.57462 15.9691 3.59171 16.1272 3.69424Z" fill="#FF99A2"/>
<path d="M9.18499 5.1081C6.78832 5.51822 5.04102 7.56458 5.04102 9.97406C5.04102 11.9307 6.11332 13.6353 7.87344 14.4641C10.0736 15.5065 12.6839 14.8016 14.068 12.7894C14.3286 12.4135 14.6362 11.7342 14.7559 11.2813C15.354 9.03419 14.3372 6.70588 12.2866 5.61648C11.3723 5.12946 10.1889 4.93721 9.18499 5.1081ZM10.9921 6.02234C12.1883 6.33847 13.2136 7.20144 13.722 8.32502C14.162 9.29479 14.1834 10.5166 13.7775 11.5248C13.2905 12.7381 12.2609 13.6267 10.9451 13.9813C10.4624 14.1095 9.56094 14.1095 9.04401 13.9813C7.71537 13.6524 6.63879 12.7082 6.15604 11.4522C5.85699 10.6832 5.81427 9.64938 6.04497 8.87185C6.47645 7.40224 7.65129 6.30857 9.14654 5.98816C9.66347 5.87281 10.488 5.8899 10.9921 6.02234Z" fill="#FF99A2"/>
</svg>
