<svg width="20" height="20" viewBox="0 0 20 20" fill="none" xmlns="http://www.w3.org/2000/svg">
<circle cx="10" cy="10" r="9.5" stroke="#FF99A2"/>
<path d="M6.27874 5.0779C5.93708 5.2542 5.42279 5.95121 5.2106 6.52521C4.84018 7.52562 4.95886 8.68182 5.56305 9.99383C6.34707 11.6953 7.56265 13.0525 9.11989 13.9586C9.94706 14.4424 10.9828 14.8442 11.6913 14.9631C11.8783 14.9918 12.2236 15.0082 12.5724 14.9959C13.1119 14.9795 13.1622 14.9713 13.3816 14.8606C13.5111 14.795 13.7053 14.6802 13.8132 14.6023C14.3814 14.1923 15 13.2206 15 12.7327C15 12.5523 14.8633 11.8593 14.7986 11.7199C14.7303 11.5641 14.5576 11.3796 14.4138 11.3017C14.2735 11.2238 12.3099 10.8589 12.0294 10.8589C11.8352 10.8589 11.6158 10.9409 11.5007 11.0598C11.4611 11.0967 11.3173 11.3181 11.1806 11.5518C11.044 11.7855 10.8929 11.9946 10.8498 12.0192C10.6484 12.1217 9.72408 11.5723 9.05515 10.9532C8.55166 10.4899 7.98702 9.71503 7.98702 9.49363C7.98702 9.41983 8.08413 9.26403 8.3107 8.97293C8.67034 8.50962 8.77104 8.25952 8.72788 7.94382C8.68832 7.66912 7.86115 5.4141 7.74966 5.2829C7.55186 5.0492 7.40081 5 6.88653 5C6.5161 5 6.39382 5.0164 6.27874 5.0779ZM7.33248 5.7052C7.39002 5.79131 8.16684 7.98072 8.16684 8.06682C8.16684 8.15702 8.06614 8.31282 7.73887 8.73513C7.46914 9.08363 7.4116 9.22713 7.4116 9.52233C7.4116 9.81753 7.51949 10.0471 7.90071 10.5678C8.53008 11.4247 9.45435 12.2037 10.3031 12.5892C10.5441 12.6958 10.6268 12.7122 10.8174 12.6999C11.1375 12.6753 11.2849 12.5482 11.6122 11.9987C11.7596 11.7527 11.9143 11.5354 11.9574 11.5149C12.0761 11.4493 14.1656 11.8224 14.2484 11.9208C14.2807 11.9618 14.3347 12.1586 14.367 12.3719C14.421 12.7245 14.421 12.7573 14.367 12.8844C14.0074 13.6798 13.3457 14.2497 12.6623 14.3522C11.4755 14.5285 9.38602 13.6429 8.00141 12.3719C7.19222 11.6297 6.46934 10.617 6.02699 9.60023C5.35806 8.07092 5.43718 6.91061 6.27514 5.94301L6.52329 5.656H6.9081C7.17424 5.656 7.3073 5.6724 7.33248 5.7052Z" fill="#FF99A2"/>
</svg>
