<svg width="20" height="19" viewBox="0 0 20 19" fill="none" xmlns="http://www.w3.org/2000/svg">
<path d="M3.28767 0.0783235C1.72994 0.457085 0.53229 1.88123 0.105675 3.87099L0 4.37096V9.49687V14.6228L0.105675 15.1227C0.536204 17.1327 1.74168 18.5518 3.32681 18.9205C3.79256 19.0265 16.2074 19.0265 16.6732 18.9205C18.2583 18.5518 19.4638 17.1327 19.8943 15.1227L20 14.6228V9.49687V4.37096L19.8943 3.87099C19.4638 1.86103 18.2583 0.441935 16.6732 0.0732734C16.227 -0.0277298 3.71037 -0.0226796 3.28767 0.0783235ZM16.908 1.20956C18.0274 1.69437 18.7945 2.71451 19.1076 4.1437C19.1742 4.45176 19.1781 4.76992 19.1781 9.49687C19.1781 14.2238 19.1742 14.542 19.1076 14.85C18.7906 16.2893 18.0039 17.3347 16.8885 17.7842L16.5949 17.9054H10H3.40509L3.11155 17.7842C2.18395 17.4105 1.48728 16.6327 1.0998 15.547C0.806262 14.7288 0.821918 15.1025 0.821918 9.49687C0.821918 4.76992 0.825832 4.45176 0.892368 4.1437C1.20939 2.71451 2.02348 1.62872 3.09198 1.22471C3.24462 1.16411 3.42074 1.10856 3.48337 1.09846C3.5499 1.08835 6.53229 1.07825 10.1174 1.0833L16.6341 1.08835L16.908 1.20956Z" fill="#FF99A2"/>
<path d="M7.11149 5.11194C7.05983 5.13542 6.97529 5.20117 6.92363 5.25753C6.82969 5.36086 6.82969 5.43601 6.8156 9.45636C6.81091 11.7061 6.8156 13.5988 6.82969 13.6552C6.84378 13.7162 6.91423 13.8196 6.97999 13.8806C7.25239 14.1342 7.15376 14.1812 10.9722 11.9409C14.1565 10.0763 14.4806 9.87906 14.5416 9.72877C14.6262 9.52211 14.5839 9.32955 14.4195 9.19334C14.1565 8.9726 7.43087 5.06966 7.31815 5.07436C7.25709 5.07436 7.16316 5.09315 7.11149 5.11194ZM10.4931 7.99569C11.8645 8.79413 13.0105 9.47514 13.0434 9.50332C13.0857 9.54559 12.5174 9.90254 10.479 11.0955C9.03243 11.9409 7.83948 12.6313 7.82539 12.6313C7.8066 12.6313 7.79251 11.2364 7.79251 9.5315V6.427L7.90054 6.48336C7.9569 6.51624 9.12637 7.19726 10.4931 7.99569Z" fill="#FF99A2"/>
</svg>
